# xmcd
#
# Track frame offsets:
#	150
#	11892
#	29545
#	44024
#	57504
#	73293
#	87913
#
# Disc length: 1491 seconds
#
# Revision: 1
# Processed by: cddbd v1.5.2PL0 Copyright (c) Steve Scherf et al.
# Submitted via: audiograbber 1.83.01
#
DISCID=6705d107
DTITLE=Scooter Lee - Sky Full Of Angels
DYEAR=1900
DGENRE=Gospel
TTITLE0=That´s When The Angels Rejoice
TTITLE1=Just A Closer Walk With Thee
TTITLE2=Sky Full Of Angels
TTITLE3=Safe In The Arms Of Jesus
TTITLE4=Build An Ark
TTITLE5=Mighty High
TTITLE6=That´s Who Jesus Is
EXTD=
EXTT0=
EXTT1=
EXTT2=
EXTT3=
EXTT4=
EXTT5=
EXTT6=
PLAYORDER=
